<?xml version="1.0" encoding="utf-8"?>
<!-- Generator: Adobe Illustrator 23.0.0, SVG Export Plug-In . SVG Version: 6.00 Build 0)  -->
<svg version="1.1" id="Layer_1" xmlns="http://www.w3.org/2000/svg" xmlns:xlink="http://www.w3.org/1999/xlink" x="0px" y="0px"
	 width="1500px" height="1000px" viewBox="0 0 1500 1000" style="enable-background:new 0 0 1500 1000;" xml:space="preserve">
<style type="text/css">
	.st0{fill:#FFFFFF;}
	.st1{fill:none;stroke:#33B36E;stroke-width:4.534;stroke-miterlimit:10;}
	.st2{fill:none;stroke:#6085C3;stroke-width:4.534;stroke-miterlimit:10;}
	.st3{fill:none;stroke:#33B36E;stroke-width:7.454;stroke-miterlimit:10;}
</style>
<path class="st0" d="M1149.5,615.1c0,7.2-5.8,13.1-13.1,13.1c-7.2,0-13.1-5.8-13.1-13.1c0-7.2,5.8-13.1,13.1-13.1
	C1143.7,602,1149.5,607.9,1149.5,615.1"/>
<path class="st1" d="M1149.5,615.1c0,7.2-5.8,13.1-13.1,13.1c-7.2,0-13.1-5.8-13.1-13.1c0-7.2,5.8-13.1,13.1-13.1
	C1143.7,602,1149.5,607.9,1149.5,615.1z"/>
<path class="st0" d="M1149.5,615.1c0,7.2-5.8,13.1-13.1,13.1c-7.2,0-13.1-5.8-13.1-13.1c0-7.2,5.8-13.1,13.1-13.1
	C1143.7,602,1149.5,607.9,1149.5,615.1"/>
<path class="st1" d="M1149.5,615.1c0,7.2-5.8,13.1-13.1,13.1c-7.2,0-13.1-5.8-13.1-13.1c0-7.2,5.8-13.1,13.1-13.1
	C1143.7,602,1149.5,607.9,1149.5,615.1z"/>
<path class="st0" d="M1146.2,555.6c0,7.2-5.8,13.1-13.1,13.1c-7.2,0-13.1-5.8-13.1-13.1c0-7.2,5.8-13.1,13.1-13.1
	C1140.4,542.6,1146.2,548.4,1146.2,555.6"/>
<path class="st2" d="M1146.2,555.6c0,7.2-5.8,13.1-13.1,13.1c-7.2,0-13.1-5.8-13.1-13.1c0-7.2,5.8-13.1,13.1-13.1
	C1140.4,542.6,1146.2,548.4,1146.2,555.6z"/>
<path class="st0" d="M931.6,522.2c0,7.2-5.8,13.1-13.1,13.1c-7.2,0-13.1-5.8-13.1-13.1c0-7.2,5.8-13.1,13.1-13.1
	C925.8,509.2,931.6,515,931.6,522.2"/>
<path class="st2" d="M931.6,522.2c0,7.2-5.8,13.1-13.1,13.1c-7.2,0-13.1-5.8-13.1-13.1c0-7.2,5.8-13.1,13.1-13.1
	C925.8,509.2,931.6,515,931.6,522.2z"/>
<path class="st0" d="M675.6,469.1c0,7.2-5.8,13.1-13.1,13.1c-7.2,0-13.1-5.8-13.1-13.1c0-7.2,5.8-13.1,13.1-13.1
	C669.8,456.1,675.6,461.9,675.6,469.1"/>
<path class="st2" d="M675.6,469.1c0,7.2-5.8,13.1-13.1,13.1c-7.2,0-13.1-5.8-13.1-13.1c0-7.2,5.8-13.1,13.1-13.1
	C669.8,456.1,675.6,461.9,675.6,469.1z"/>
<path class="st0" d="M534.2,460.6c0,7.2-5.8,13.1-13.1,13.1c-7.2,0-13.1-5.8-13.1-13.1c0-7.2,5.8-13.1,13.1-13.1
	C528.3,447.6,534.2,453.4,534.2,460.6"/>
<path class="st2" d="M534.2,460.6c0,7.2-5.8,13.1-13.1,13.1c-7.2,0-13.1-5.8-13.1-13.1c0-7.2,5.8-13.1,13.1-13.1
	C528.3,447.6,534.2,453.4,534.2,460.6z"/>
<path class="st0" d="M413.4,469.1c0,11.9-9.6,21.5-21.5,21.5c-11.9,0-21.5-9.6-21.5-21.5s9.6-21.5,21.5-21.5
	C403.8,447.7,413.4,457.3,413.4,469.1"/>
<circle class="st3" cx="391.9" cy="469.1" r="21.5"/>
<path class="st0" d="M1250.2,764.8c0,7.2-5.8,13.1-13.1,13.1c-7.2,0-13.1-5.8-13.1-13.1c0-7.2,5.8-13.1,13.1-13.1
	S1250.2,757.6,1250.2,764.8"/>
<circle class="st1" cx="1237.2" cy="764.8" r="13.1"/>
<path class="st0" d="M1333.3,881.2c0,7.2-5.8,13.1-13.1,13.1s-13.1-5.8-13.1-13.1c0-7.2,5.8-13.1,13.1-13.1S1333.3,874,1333.3,881.2
	"/>
<path class="st1" d="M1333.3,881.2c0,7.2-5.8,13.1-13.1,13.1s-13.1-5.8-13.1-13.1c0-7.2,5.8-13.1,13.1-13.1S1333.3,874,1333.3,881.2
	z"/>
<path class="st0" d="M1226.1,725.8c0,7.2-5.8,13.1-13.1,13.1c-7.2,0-13.1-5.8-13.1-13.1c0-7.2,5.8-13.1,13.1-13.1
	C1220.3,712.8,1226.1,718.6,1226.1,725.8"/>
<path class="st1" d="M1226.1,725.8c0,7.2-5.8,13.1-13.1,13.1c-7.2,0-13.1-5.8-13.1-13.1c0-7.2,5.8-13.1,13.1-13.1
	C1220.3,712.8,1226.1,718.6,1226.1,725.8z"/>
</svg>
